<svg xmlns="http://www.w3.org/2000/svg" width="232" height="14" viewBox="0 0 232 14">
  <g id="Path_4" data-name="Path 4" fill="#50dbdb">
    <path d="M 225 13.5 L 7 13.5 C 3.415882349014282 13.5 0.5 10.5841178894043 0.5 7 C 0.5 3.415882349014282 3.415882349014282 0.5 7 0.5 L 225 0.5 C 228.5841217041016 0.5 231.5 3.415882349014282 231.5 7 C 231.5 10.5841178894043 228.5841217041016 13.5 225 13.5 Z" stroke="none"/>
    <path d="M 7 1 C 3.69158935546875 1 1 3.691588401794434 1 7 C 1 10.30841159820557 3.69158935546875 13 7 13 L 225 13 C 228.3084106445313 13 231 10.30841159820557 231 7 C 231 3.691588401794434 228.3084106445313 1 225 1 L 7 1 M 7 0 L 225 0 C 228.8659973144531 0 232 3.133999824523926 232 7 C 232 10.86600017547607 228.8659973144531 14 225 14 L 7 14 C 3.134002685546875 14 0 10.86600017547607 0 7 C 0 3.133999824523926 3.134002685546875 0 7 0 Z" stroke="none" fill="#707070"/>
  </g>
</svg>
