<svg xmlns="http://www.w3.org/2000/svg" width="84.715" height="84.715" viewBox="0 0 84.715 84.715">
  <g id="Group_30" data-name="Group 30" transform="translate(-764 -737)">
    <g id="Group_29" data-name="Group 29" transform="translate(764 737)">
      <g id="Path_10" data-name="Path 10" fill="#d26f17">
        <path d="M 42.35744476318359 83.21488952636719 C 36.84106826782227 83.21488952636719 31.49049186706543 82.13483428955078 26.4543514251709 80.00473022460938 C 21.5892448425293 77.94696044921875 17.21963310241699 75.00078582763672 13.46686840057373 71.24802398681641 C 9.714103698730469 67.49526977539063 6.767927169799805 63.12564468383789 4.71016263961792 58.26055145263672 C 2.580056428909302 53.22441101074219 1.499997735023499 47.87382125854492 1.499997735023499 42.35744476318359 C 1.499997735023499 36.84106826782227 2.580056428909302 31.49049186706543 4.71016263961792 26.4543514251709 C 6.767927169799805 21.5892448425293 9.714103698730469 17.21963310241699 13.46686840057373 13.46686840057373 C 17.21963310241699 9.714103698730469 21.5892448425293 6.767927169799805 26.4543514251709 4.71016263961792 C 31.49049186706543 2.580056428909302 36.84106826782227 1.499997735023499 42.35744476318359 1.499997735023499 C 53.00979614257813 1.499997735023499 63.08681106567383 5.578397750854492 70.73220062255859 12.98392677307129 C 74.45767974853516 16.59253883361816 77.42955017089844 20.81369209289551 79.56523132324219 25.53012657165527 C 81.77114868164063 30.40165710449219 82.99167633056641 35.60770416259766 83.19291687011719 41.00366973876953 C 83.20629119873047 41.34946823120117 83.21488952636719 41.88002014160156 83.21488952636719 42.35744476318359 C 83.21488952636719 47.87383270263672 82.13483428955078 53.22441101074219 80.00473022460938 58.26055145263672 C 77.94696044921875 63.12564468383789 75.00078582763672 67.49526977539063 71.24802398681641 71.24802398681641 C 67.49526977539063 75.00078582763672 63.12564468383789 77.94696044921875 58.26055145263672 80.00473022460938 C 53.22441101074219 82.13483428955078 47.87383270263672 83.21488952636719 42.35744476318359 83.21488952636719 Z" stroke="none"/>
        <path d="M 42.35744476318359 3.000007629394531 C 37.04289627075195 3.000007629394531 31.88892364501953 4.040191650390625 27.03866958618164 6.0916748046875 C 22.35237884521484 8.073814392089844 18.14302062988281 10.91204833984375 14.52752685546875 14.52752685546875 C 10.91204833984375 18.14302062988281 8.073814392089844 22.35237884521484 6.0916748046875 27.03866958618164 C 4.040191650390625 31.88892364501953 3.000007629394531 37.04289627075195 3.000007629394531 42.35744476318359 C 3.000007629394531 47.67199325561523 4.040191650390625 52.82596588134766 6.0916748046875 57.67621612548828 C 8.073814392089844 62.36251068115234 10.91204833984375 66.57186889648438 14.52752685546875 70.18736267089844 C 18.14302062988281 73.80284118652344 22.35237884521484 76.64106750488281 27.03866958618164 78.62321472167969 C 31.88892364501953 80.67469787597656 37.04289627075195 81.71488189697266 42.35744476318359 81.71488189697266 C 47.67199325561523 81.71488189697266 52.82596588134766 80.67469787597656 57.67621612548828 78.62321472167969 C 62.36251068115234 76.64106750488281 66.57186889648438 73.80284118652344 70.18736267089844 70.18736267089844 C 73.80284118652344 66.57186889648438 76.64106750488281 62.36251068115234 78.62321472167969 57.67621612548828 C 80.67469787597656 52.82596588134766 81.71488189697266 47.67199325561523 81.71488189697266 42.35744476318359 C 81.71488189697266 41.79903030395508 81.70369720458984 41.31149673461914 81.69395446777344 41.05956649780273 C 81.50000762939453 35.85897827148438 80.32407379150391 30.8422966003418 78.19880676269531 26.14887237548828 C 76.14125823974609 21.60500335693359 73.27799224853516 17.53817749023438 69.68856811523438 14.06134796142578 C 62.32450866699219 6.928337097167969 52.61813735961914 3.000007629394531 42.35744476318359 3.000007629394531 M 42.35744476318359 7.62939453125e-06 C 65.21255493164063 7.62939453125e-06 83.83985900878906 18.10141754150391 84.69187164306641 40.9477653503418 C 84.70484161376953 41.28327178955078 84.71488189697266 41.81919097900391 84.71488189697266 42.35744476318359 C 84.71488189697266 65.75081634521484 65.75081634521484 84.71488189697266 42.35744476318359 84.71488189697266 C 18.96407318115234 84.71488189697266 7.62939453125e-06 65.75081634521484 7.62939453125e-06 42.35744476318359 C 7.62939453125e-06 18.96407318115234 18.96407318115234 7.62939453125e-06 42.35744476318359 7.62939453125e-06 Z" stroke="none"/>
      </g>
      <circle id="Ellipse_4" data-name="Ellipse 4" cx="4" cy="4" r="4" transform="translate(16 16.715)"/>
      <ellipse id="Ellipse_5" data-name="Ellipse 5" cx="5.5" cy="5" rx="5.5" ry="5" transform="translate(33 26.715)"/>
      <ellipse id="Ellipse_6" data-name="Ellipse 6" cx="2" cy="2.5" rx="2" ry="2.5" transform="translate(55 17.715)"/>
      <circle id="Ellipse_7" data-name="Ellipse 7" cx="5.5" cy="5.5" r="5.5" transform="translate(22 49.715)"/>
      <ellipse id="Ellipse_8" data-name="Ellipse 8" cx="2.5" cy="2" rx="2.5" ry="2" transform="translate(58 49.715)"/>
      <circle id="Ellipse_9" data-name="Ellipse 9" cx="4.5" cy="4.5" r="4.5" transform="translate(44 40.715)"/>
    </g>
    <circle id="Ellipse_10" data-name="Ellipse 10" cx="3" cy="3" r="3" transform="translate(802 753.715)"/>
    <circle id="Ellipse_11" data-name="Ellipse 11" cx="4.5" cy="4.5" r="4.5" transform="translate(809 802.715)"/>
    <circle id="Ellipse_12" data-name="Ellipse 12" cx="4.5" cy="4.5" r="4.5" transform="translate(779 768.715)"/>
  </g>
</svg>
