<svg xmlns="http://www.w3.org/2000/svg" width="57" height="57.001" viewBox="0 0 57 57.001">
  <path id="Union_4" data-name="Union 4" d="M3889.1,802.8a28.008,28.008,0,0,1,21.8-51.6c.218.092.444.192.673.3l-4.476,4.763a22.442,22.442,0,0,0-6.958-1.1,21.984,21.984,0,1,0,22.259,21.982c0-.049,0-.095,0-.138h-16.882v-4.879H3928V777a27.862,27.862,0,0,1-4.782,15.655A28.085,28.085,0,0,1,3910.9,802.8a28.095,28.095,0,0,1-21.8,0Z" transform="translate(-3871.5 -748.5)" fill="#ff7801" stroke="#707070" stroke-width="1"/>
</svg>
