<svg xmlns="http://www.w3.org/2000/svg" width="165.176" height="101.067" viewBox="0 0 165.176 101.067">
  <g id="Group_20" data-name="Group 20" transform="matrix(0.951, -0.309, 0.309, 0.951, 0, 48.074)">
    <g id="Path_7" data-name="Path 7" transform="translate(0 0)" fill="#bc1300">
      <path d="M 150.5753479003906 53.21981430053711 L 5.8323974609375 53.21981430053711 L 28.59843826293945 29.30985832214355 L 30.25611305236816 27.56888008117676 L 28.58141708374023 25.84429359436035 L 5.912451267242432 2.500010013580322 L 150.5156860351563 2.500010013580322 L 132.5068054199219 26.06803131103516 L 131.3582916259766 27.57109642028809 L 132.4925231933594 29.08494567871094 L 150.5753479003906 53.21981430053711 Z" stroke="none"/>
      <path d="M 11.82489013671875 4.999996185302734 L 30.37493896484375 24.10266304016113 L 33.72434997558594 27.55185317993164 L 30.40898895263672 31.03378295898438 L 11.66477966308594 50.71980667114258 L 145.5783843994141 50.71980667114258 L 130.4918212890625 30.5839729309082 L 128.2233276367188 27.55625915527344 L 130.5203704833984 24.55014038085938 L 145.4590759277344 4.999996185302734 L 11.82489013671875 4.999996185302734 M -1.52587890625e-05 -3.814697265625e-06 L 155.5722961425781 -3.814697265625e-06 L 134.4932708740234 27.5859260559082 L 155.5722961425781 55.71980667114258 L -1.52587890625e-05 55.71980667114258 L 26.78788757324219 27.5859260559082 L -1.52587890625e-05 -3.814697265625e-06 Z" stroke="none"/>
    </g>
    <text id="E-Ticket" transform="translate(43.666 35.732)" fill="#fff" font-size="20" font-family="Lato-BlackItalic, Lato" font-weight="800" font-style="italic"><tspan x="0" y="0">E-Ticket</tspan></text>
  </g>
</svg>
