<svg xmlns="http://www.w3.org/2000/svg" width="158.228" height="99.707" viewBox="0 0 158.228 99.707"><defs><style>.a{fill:#ff3e73;}.b{fill:none;stroke:#000;stroke-width:2px;}.c{fill:#fff;font-size:20px;font-family:BioRhyme-Bold, BioRhyme;font-weight:700;}.d,.e{stroke:none;}.e{fill:#707070;}</style></defs><g transform="translate(-212.344 -162.943) rotate(-11)"><g class="a" transform="translate(-3716 -521)"><path class="d" d="M 4034.499755859375 821.4998779296875 L 3888.499755859375 821.4998779296875 L 3888.499755859375 802.4924926757813 C 3897.36767578125 802.2264404296875 3904.5 794.9298095703125 3904.5 785.9996337890625 C 3904.5 777.0690307617188 3897.36767578125 769.7728881835938 3888.499755859375 769.5078125 L 3888.499755859375 749.5001220703125 L 4034.499755859375 749.5001220703125 L 4034.499755859375 769.5078735351563 C 4025.63232421875 769.77392578125 4018.50048828125 777.070068359375 4018.50048828125 785.9996337890625 C 4018.50048828125 794.9307861328125 4025.63232421875 802.2274169921875 4034.499755859375 802.4925537109375 L 4034.499755859375 821.4998779296875 Z"/><path class="e" d="M 4033.999755859375 820.9998779296875 L 4033.999755859375 802.970947265625 C 4025.090087890625 802.4512939453125 4018.00048828125 795.037841796875 4018.00048828125 785.9996337890625 C 4018.00048828125 776.9630126953125 4025.09033203125 769.550048828125 4033.999755859375 769.029541015625 L 4033.999755859375 750.0001220703125 L 3888.999755859375 750.0001220703125 L 3888.999755859375 769.0294189453125 C 3897.909912109375 769.5490112304688 3905 776.9620361328125 3905 785.9996337890625 C 3905 795.0368041992188 3897.909912109375 802.4503173828125 3888.999755859375 802.9708251953125 L 3888.999755859375 820.9998779296875 L 4033.999755859375 820.9998779296875 M 4034.999755859375 821.9998779296875 L 3887.999755859375 821.9998779296875 L 3887.999755859375 802 C 3896.82373046875 801.9990234375 3904 794.8217163085938 3904 785.9996337890625 C 3904 777.1776123046875 3896.822265625 770.0003662109375 3887.999755859375 770.0003662109375 L 3887.999755859375 749.0001220703125 L 4034.999755859375 749.0001220703125 L 4034.999755859375 770.0003662109375 C 4026.176513671875 770.0013427734375 4019.00048828125 777.1781616210938 4019.00048828125 785.9996337890625 C 4019.00048828125 794.822265625 4026.177734375 802 4034.999755859375 802 L 4034.999755859375 821.9989013671875 L 4034.999755859375 821.9998779296875 Z"/></g><line class="b" x2="85" transform="translate(203.5 244.5)"/><line class="b" x2="85" transform="translate(202.5 284.5)"/><text class="c" transform="translate(202 272)"><tspan x="0" y="0">E-Raffle</tspan></text></g></svg>