<svg xmlns="http://www.w3.org/2000/svg" width="71" height="71.001" viewBox="0 0 71 71.001">
  <g id="Group_35" data-name="Group 35" transform="translate(-1289 -525.999)">
    <g id="Group_34" data-name="Group 34" transform="translate(458 -270)">
      <g id="Ellipse_19" data-name="Ellipse 19" transform="translate(842 807)" fill="#277fb7" stroke="#707070" stroke-width="1">
        <circle cx="24.5" cy="24.5" r="24.5" stroke="none"/>
        <circle cx="24.5" cy="24.5" r="24" fill="none"/>
      </g>
      <text id="E" transform="translate(859 838)" fill="#fff" font-size="19" font-family="BioRhyme-Bold, BioRhyme" font-weight="700"><tspan x="0" y="0">E</tspan></text>
    </g>
    <path id="Union_3" data-name="Union 3" d="M3893.377,816.25a35.009,35.009,0,0,1,27.248-64.5c.272.115.555.24.841.369l-5.595,5.953a28.052,28.052,0,0,0-8.7-1.377A27.479,27.479,0,1,0,3935,784.173c0-.061,0-.119,0-.173h-21.1v-6.1H3942V784a34.832,34.832,0,0,1-5.978,19.569,35.106,35.106,0,0,1-15.4,12.681,35.118,35.118,0,0,1-27.248,0Z" transform="translate(-2582.5 -222.5)" fill="#ff7801" stroke="#707070" stroke-width="1"/>
  </g>
</svg>
